<svg width="239" height="28" viewBox="0 0 239 28" fill="none" xmlns="http://www.w3.org/2000/svg">
<path d="M28.2 -1.90735e-06V9.52H19.52V28H8.88V9.52H0.2V-1.90735e-06H28.2ZM56.6306 8.4H41.8306V10.2H55.4706V17.8H41.8306V19.64H56.6306V28H31.1906V-1.90735e-06H56.6306V8.4ZM82.0234 28L80.8234 23.56H72.0634L70.8234 28H59.0234L68.5434 -1.90735e-06H84.3034L93.8634 28H82.0234ZM74.3434 15.2H78.5434L76.9834 9.52H75.8634L74.3434 15.2ZM121.539 -1.90735e-06H139.259V28H128.619V9.52H127.979L124.219 28H111.739L107.979 9.52H107.339V28H96.6594V-1.90735e-06H114.419L117.659 16.2H118.299L121.539 -1.90735e-06ZM165.07 28L163.87 23.56H155.11L153.87 28H142.07L151.59 -1.90735e-06H167.35L176.91 28H165.07ZM157.39 15.2H161.59L160.03 9.52H158.91L157.39 15.2ZM195.466 -1.90735e-06C203.626 -1.90735e-06 207.586 3.96 207.586 10.84C207.586 17.72 203.626 21.68 195.466 21.68C195.306 21.68 192.386 21.68 190.346 21.68V28H179.706V-1.90735e-06C179.706 -1.90735e-06 195.306 -1.90735e-06 195.466 -1.90735e-06ZM194.066 12.92C196.106 12.92 197.146 12.68 197.146 10.84C197.146 9 196.106 8.76 194.066 8.76C193.386 8.76 191.706 8.76 190.346 8.76V12.92C191.706 12.92 193.386 12.92 194.066 12.92ZM226.365 -1.90735e-06C234.525 -1.90735e-06 238.485 3.96 238.485 10.84C238.485 17.72 234.525 21.68 226.365 21.68C226.205 21.68 223.285 21.68 221.245 21.68V28H210.605V-1.90735e-06C210.605 -1.90735e-06 226.205 -1.90735e-06 226.365 -1.90735e-06ZM224.965 12.92C227.005 12.92 228.045 12.68 228.045 10.84C228.045 9 227.005 8.76 224.965 8.76C224.285 8.76 222.605 8.76 221.245 8.76V12.92C222.605 12.92 224.285 12.92 224.965 12.92Z" fill="#309052"/>
</svg>
